<svg width="31" height="31" viewBox="0 0 31 31" fill="none" xmlns="http://www.w3.org/2000/svg">
    <g clip-path="url(#clip0_5_50)">
        <rect width="31" height="31" rx="15.5" fill="white"/>
        <path d="M5.9 8.99997L15.7743 15.6667L25.1 8.99997M33.5 14.5C33.5 24.165 25.4412 32 15.5 32C5.55887 32 -2.5 24.165 -2.5 14.5C-2.5 4.83501 5.55887 -3 15.5 -3C25.4412 -3 33.5 4.83501 33.5 14.5ZM22.4603 23.4445H8.54019C7.19611 23.4445 6.52355 23.4444 6.01015 23.2022C5.55857 22.9891 5.19168 22.6493 4.96159 22.2312C4.7 21.7558 4.7 21.1334 4.7 19.8888V11.4444C4.7 10.1998 4.7 9.57758 4.96159 9.10223C5.19168 8.68409 5.55857 8.34416 6.01015 8.13109C6.52355 7.88894 7.19611 7.88894 8.54019 7.88894H22.4603C23.8044 7.88894 24.4759 7.88894 24.9894 8.13109C25.441 8.34416 25.8086 8.68409 26.0387 9.10223C26.3 9.57714 26.3 10.1986 26.3 11.4408V19.8925C26.3 21.1346 26.3 21.7563 26.0387 22.2312C25.8086 22.6493 25.441 22.9891 24.9894 23.2022C24.4759 23.4444 23.8044 23.4445 22.4603 23.4445Z" stroke="#111111" stroke-linecap="round" stroke-linejoin="round"/>
    </g>
    <defs>
        <clipPath id="clip0_5_50">
            <rect width="31" height="31" rx="15.5" fill="white"/>
        </clipPath>
    </defs>
</svg>



