<?xml version="1.0" encoding="UTF-8" standalone="no"?>
<!-- Created with Inkscape (http://www.inkscape.org/) -->

<svg
   width="7.40834mm"
   height="7.40839mm"
   viewBox="0 0 7.40834 7.40839"
   version="1.1"
   id="svg139"
   inkscape:version="1.1.2 (0a00cf5339, 2022-02-04)"
   sodipodi:docname="international.svg"
   xmlns:inkscape="http://www.inkscape.org/namespaces/inkscape"
   xmlns:sodipodi="http://sodipodi.sourceforge.net/DTD/sodipodi-0.dtd"
   xmlns="http://www.w3.org/2000/svg"
   xmlns:svg="http://www.w3.org/2000/svg">
  <sodipodi:namedview
     id="namedview141"
     pagecolor="#ffffff"
     bordercolor="#666666"
     borderopacity="1.0"
     inkscape:pageshadow="2"
     inkscape:pageopacity="0.0"
     inkscape:pagecheckerboard="0"
     inkscape:document-units="mm"
     showgrid="false"
     inkscape:zoom="7.0698092"
     inkscape:cx="28.077137"
     inkscape:cy="30.411005"
     inkscape:window-width="1123"
     inkscape:window-height="710"
     inkscape:window-x="0"
     inkscape:window-y="17"
     inkscape:window-maximized="1"
     inkscape:current-layer="layer1" />
  <defs
     id="defs136" />
  <g
     inkscape:label="Layer 1"
     inkscape:groupmode="layer"
     id="layer1"
     transform="translate(-80.126475,-107.07202)">
    <path
       d="m 87.31576,109.52797 c 0,0 0,0 0,-0.0186 -0.261514,-0.71468 -0.736018,-1.33172 -1.35935,-1.76765 -0.623305,-0.43592 -1.365356,-0.6697 -2.125768,-0.6697 -0.760413,0 -1.502453,0.23378 -2.125776,0.6697 -0.623324,0.43593 -1.097839,1.05297 -1.359352,1.76765 0,0 0,0 0,0.0186 -0.292052,0.80649 -0.292052,1.68999 0,2.49649 0,0 0,0 0,0.0186 0.261513,0.71467 0.736028,1.33173 1.359352,1.76763 0.623323,0.43593 1.365363,0.66972 2.125776,0.66972 0.760412,0 1.502463,-0.23379 2.125768,-0.66972 0.623332,-0.4359 1.097836,-1.05296 1.35935,-1.76763 0,0 0,0 0,-0.0186 0.292073,-0.8065 0.292073,-1.69 0,-2.49649 z m -6.365266,1.99124 c -0.128707,-0.48696 -0.128707,-0.99904 0,-1.486 h 0.690345 c -0.05937,0.49355 -0.05937,0.99245 0,1.486 z m 0.304344,0.74301 h 0.519616 c 0.08712,0.33131 0.211635,0.65164 0.371152,0.95474 -0.36399,-0.24817 -0.668261,-0.5743 -0.890768,-0.95474 z m 0.519616,-2.97201 h -0.519616 c 0.219303,-0.37927 0.519687,-0.70531 0.879634,-0.95476 -0.155678,0.30361 -0.276458,0.62391 -0.360018,0.95476 z m 1.677622,4.34654 c -0.455877,-0.33483 -0.776036,-0.82277 -0.901912,-1.37453 h 0.901912 z m 0,-2.11754 h -1.061508 c -0.06926,-0.49292 -0.06926,-0.99308 0,-1.486 h 1.061508 z m 0,-2.229 h -0.901912 c 0.125876,-0.55177 0.446035,-1.03971 0.901912,-1.37455 z m 2.939521,0 h -0.519615 c -0.0871,-0.33132 -0.211641,-0.65164 -0.371158,-0.95476 0.363987,0.24819 0.668258,0.57432 0.890773,0.95476 z m -2.197232,-1.37455 c 0.455877,0.33484 0.776022,0.82278 0.901911,1.37455 h -0.901911 z m 0,5.72109 v -1.37453 h 0.901911 c -0.125889,0.55176 -0.446034,1.0397 -0.901911,1.37453 z m 1.061508,-2.11754 h -1.061508 v -1.486 h 1.061508 c 0.06927,0.49292 0.06927,0.99308 0,1.486 z m 0.25609,1.69775 c 0.159517,-0.3031 0.28403,-0.62343 0.371158,-0.95474 h 0.519615 c -0.222515,0.38044 -0.526786,0.70657 -0.890773,0.95474 z m 1.183984,-1.69775 h -0.690351 c 0.03019,-0.24651 0.04506,-0.49466 0.04453,-0.743 4.23e-4,-0.24834 -0.01445,-0.49649 -0.04453,-0.743 h 0.690351 c 0.128693,0.48696 0.128693,0.99904 0,1.486 z"
       fill="#3cc1b3"
       id="path143"
       style="stroke-width:0.264583" />
  </g>
</svg>
